<svg width="7276" height="2800" viewBox="0 0 7276 2800" fill="none" xmlns="http://www.w3.org/2000/svg">
<rect width="7276" height="2800" fill="#1E1E1E"/>
<rect x="-864" y="-4394" width="9000" height="9000" fill="#FDFBFA"/>
<path d="M6883.5 128.5C7079.45 173.912 7176.72 207.045 7339 273V2849.5H-63.3203L1305 479.5C1494.19 399.515 1618.23 366.505 1837 306C2062.34 225.818 2272.57 224.419 2692 245C3212.17 294.953 3500.09 341.513 4007.5 456C4429.44 573.679 4597.23 569.692 4862.5 528C5374.76 466.995 5617.81 408.386 5995.5 273C6423.29 160.718 6669.37 93.4559 6883.5 128.5Z" fill="#E6DAD0"/>
<path d="M6735 715.502C6976.37 757.823 7108.76 796.338 7341.5 882.502V2854H2024.5L2926 1405.5C3145.47 1323.38 3266.81 1287.57 3480.5 1241.5C3736.53 1212.55 3873.42 1209.27 4107.5 1223C4542.85 1211.63 4774.34 1201 5074.5 1144C5389.55 1079.46 5511.1 1019.95 5654 882.502C5770.48 789.393 5852.1 747.851 6032.5 696.502C6299.6 661.355 6453 663.093 6735 715.502Z" fill="#F1C775"/>
<path d="M4265 1890.5C3864.95 1891.87 3782.33 1908.74 3567 1928.5L2950 2811H6546C6546 2811 4945 2084 4917.5 1996.5C4890 1909 4665.05 1889.13 4265 1890.5Z" fill="#255762"/>
<path d="M6032 1826.5C6552.08 1687.64 6859.69 1597.07 7337.5 1411.5V2867H3240.7L4405.5 2194.5C4574.42 2086.48 4921.09 1996.51 4999 1992C5204.98 1980.08 5671.65 1939.8 6032 1826.5Z" fill="#CB795B"/>
<path d="M1628 609C971.938 336.66 606.492 211.997 -41.198 1.22526C-43.7827 0.384135 -46.5 2.28967 -46.5 5.00782V2842.03C-46.5 2844.23 -47.8834 2845.99 -45.6846 2846.01C39.8125 2846.57 6820.16 2891.21 6688.5 2846C6556.04 2800.51 6559.82 2730.18 6042.48 2695.03C6042.17 2695.01 6041.85 2695.02 6041.55 2695.08C5928.49 2713.91 5717.3 2702.65 5605.55 2637.82C5605.18 2637.61 5604.83 2637.47 5604.41 2637.37C5538.58 2622.77 5337.61 2447.84 5138 2383C4937.79 2317.96 4593.58 2224.78 4327 2171.5C4121.19 2126.82 4022.21 2095.52 3677 1972C3331.79 1848.48 3128.83 1712.02 3028.5 1599.5C2928.17 1486.98 2933.93 1414.27 2868.5 1320.5C2803.07 1226.73 2648.93 1122.49 2552 1060.5C2220 869.5 1991.5 759.893 1628 609Z" fill="#6F1A19"/>
</svg>
